<svg width="145" height="50" viewBox="0 0 145 50" fill="none" xmlns="http://www.w3.org/2000/svg">
<g clip-path="url(#clip0_7_183)">
<path d="M1.7152 21.1941V16.7861H13.2708V30.2039C13.2708 32.5021 12.7058 34.1855 11.5703 35.2432C10.4347 36.3009 8.56866 36.8325 5.96081 36.8325C3.78665 36.8325 2.09183 36.5889 0.870649 36.0905L0.5625 31.9815H0.733694C2.02906 32.3858 3.24453 32.5851 4.38583 32.5851C5.4187 32.5851 6.12059 32.3747 6.49722 31.9538C6.87384 31.533 7.06216 30.7134 7.06216 29.4896V21.1941H1.7152Z" fill="white"/>
<path d="M16.1925 33.8755C16.1925 32.9064 16.4949 32.1644 17.1055 31.6438C17.7161 31.1233 18.5607 30.863 19.6506 30.863C22.0131 30.863 23.1943 31.8654 23.1943 33.8755C23.1943 35.8469 22.0245 36.8326 19.6791 36.8326C18.555 36.8326 17.6933 36.5779 17.0941 36.0684C16.4949 35.5534 16.1925 34.8225 16.1925 33.8755Z" fill="white"/>
<path d="M31.0692 35.8192L30.6469 31.245H30.8181C31.4915 31.5552 32.376 31.821 33.4602 32.0369C34.5445 32.2584 35.4917 32.3637 36.302 32.3637C38.345 32.3637 39.3664 31.8542 39.3664 30.8297C39.3664 30.3756 39.1496 29.9935 38.7216 29.6945C38.2879 29.3955 37.7458 29.174 37.0895 29.0355C36.4333 28.8971 35.7314 28.6922 34.9781 28.4208C34.2306 28.1495 33.523 27.8228 32.8668 27.4462C32.2105 27.0752 31.6684 26.4826 31.2347 25.6797C30.801 24.8767 30.5899 23.9021 30.5899 22.7502C30.5899 20.9062 31.2861 19.3833 32.6841 18.1761C34.0822 16.9689 36.051 16.3708 38.6017 16.3708C39.743 16.3708 40.8786 16.4595 42.0028 16.6311C43.127 16.8028 43.9715 17.0077 44.5308 17.2458L44.9245 21.5984H44.7533C43.1213 21.017 41.512 20.7235 39.9199 20.7235C37.8941 20.7235 36.8841 21.2052 36.8841 22.1743C36.8841 22.5398 37.0496 22.8444 37.3749 23.0936C37.7001 23.3428 38.1281 23.5366 38.6531 23.6806C39.1781 23.8246 39.7602 23.9796 40.3936 24.1457C41.0327 24.3119 41.6661 24.5278 42.2938 24.8047C42.9215 25.0816 43.4979 25.4194 44.0229 25.8347C44.5479 26.2445 44.9759 26.8149 45.3011 27.5459C45.6264 28.2768 45.7919 29.1352 45.7919 30.1209C45.7919 30.9072 45.6492 31.6714 45.3696 32.4246C45.09 33.1722 44.6449 33.8921 44.0343 34.5898C43.4237 35.282 42.5392 35.8413 41.3751 36.2622C40.211 36.683 38.8528 36.8935 37.3007 36.8935C36.1194 36.8935 34.8925 36.7827 33.62 36.5667C32.3532 36.3397 31.4972 36.0905 31.0692 35.8192Z" fill="white"/>
<path d="M46.0829 36.4781L53.2502 16.7861H60.4746L67.5335 36.4781H61.0966L59.8868 32.7236H53.6154L52.4627 36.4781H46.0829ZM56.7083 21.5208L54.5741 28.7807H58.9624L56.7426 21.5208H56.7083Z" fill="white"/>
<path d="M82.7184 30.586V16.7861H87.974V36.4781H80.3844L74.5638 23.2763H74.4212V36.4781H69.1941V16.7861H77.1489L82.8382 30.4863L82.7184 30.586Z" fill="white"/>
<path d="M89.9142 21.41V16.7805H107.233V21.41H101.778V36.4725H95.5351V21.41H89.9142V21.41Z" fill="white"/>
<path d="M117.722 36.8879C115.867 36.8879 114.269 36.6111 112.928 36.0517C111.587 35.4924 110.554 34.7282 109.824 33.7536C109.094 32.779 108.557 31.7157 108.221 30.5639C107.884 29.4121 107.713 28.155 107.713 26.7817C107.713 23.6584 108.586 21.1443 110.326 19.2338C112.067 17.3233 114.686 16.3708 118.173 16.3708C119.993 16.3708 121.557 16.6367 122.869 17.1627C124.181 17.6944 125.203 18.4309 125.933 19.3833C126.664 20.3303 127.2 21.3824 127.537 22.5343C127.874 23.6861 128.045 24.9653 128.045 26.3664C128.045 27.7895 127.856 29.1075 127.48 30.3258C127.103 31.5385 126.527 32.6516 125.751 33.6539C124.975 34.6563 123.902 35.4481 122.532 36.0241C121.157 36.6 119.554 36.8879 117.722 36.8879ZM115.006 31.0235C115.616 31.9373 116.563 32.3913 117.859 32.3913C119.154 32.3913 120.107 31.9096 120.729 30.9405C121.345 29.9714 121.659 28.4762 121.659 26.4494C121.659 24.5666 121.385 23.1656 120.843 22.2463C120.301 21.3271 119.365 20.8619 118.03 20.8619C116.7 20.8619 115.713 21.3381 115.063 22.2851C114.418 23.232 114.092 24.7161 114.092 26.7208C114.092 28.6811 114.395 30.1154 115.006 31.0235Z" fill="white"/>
<path d="M129.922 35.8192L129.5 31.245H129.671C130.344 31.5552 131.229 31.821 132.313 32.0369C133.397 32.2584 134.345 32.3637 135.155 32.3637C137.198 32.3637 138.219 31.8542 138.219 30.8297C138.219 30.3756 138.003 29.9935 137.575 29.6945C137.141 29.3955 136.599 29.174 135.943 29.0355C135.286 28.8971 134.584 28.6922 133.831 28.4208C133.084 28.1495 132.376 27.8228 131.72 27.4462C131.063 27.0752 130.521 26.4826 130.088 25.6797C129.654 24.8767 129.443 23.9021 129.443 22.7502C129.443 20.9062 130.139 19.3833 131.537 18.1761C132.935 16.9689 134.904 16.3708 137.455 16.3708C138.596 16.3708 139.732 16.4595 140.856 16.6311C141.98 16.8028 142.824 17.0077 143.384 17.2458L143.777 21.5984H143.606C141.974 21.017 140.365 20.7235 138.773 20.7235C136.747 20.7235 135.737 21.2052 135.737 22.1743C135.737 22.5398 135.903 22.8444 136.228 23.0936C136.553 23.3428 136.981 23.5366 137.506 23.6806C138.031 23.8246 138.613 23.9796 139.247 24.1457C139.886 24.3119 140.513 24.5278 141.147 24.8047C141.775 25.0816 142.351 25.4194 142.876 25.8347C143.401 26.2445 143.829 26.8149 144.154 27.5459C144.479 28.2768 144.645 29.1352 144.645 30.1209C144.645 30.9072 144.502 31.6714 144.223 32.4246C143.943 33.1722 143.498 33.8921 142.887 34.5898C142.277 35.282 141.392 35.8413 140.228 36.2622C139.064 36.683 137.706 36.8935 136.154 36.8935C134.972 36.8935 133.746 36.7827 132.473 36.5667C131.206 36.3397 130.35 36.0905 129.922 35.8192Z" fill="white"/>
<path d="M42.756 49.7074V46.2852H44.2397C44.4737 46.2852 44.6905 46.3128 44.8903 46.3738C45.09 46.4347 45.2726 46.5233 45.4324 46.6451C45.5922 46.7669 45.7234 46.9331 45.8147 47.149C45.906 47.365 45.9517 47.6087 45.9517 47.8911C45.9517 48.2123 45.9003 48.4947 45.8033 48.7328C45.7063 48.9709 45.5636 49.1592 45.3867 49.2977C45.2041 49.4361 44.9987 49.5358 44.7647 49.6022C44.5308 49.6687 44.2683 49.7019 43.9829 49.7019H42.756V49.7074ZM43.8403 48.9654H44.0286C44.565 48.9654 44.8275 48.6276 44.8275 47.9465C44.8275 47.7748 44.8104 47.6253 44.7704 47.5034C44.7305 47.3816 44.6905 47.2875 44.6392 47.2266C44.5878 47.1656 44.5193 47.1158 44.428 47.0826C44.3367 47.0494 44.2625 47.0272 44.1941 47.0217C44.1313 47.0161 44.0457 47.0106 43.943 47.0106H43.8289V48.9654H43.8403Z" fill="#FBAF17"/>
<path d="M49.7864 49.7074V46.2852H52.2345V47.0438H50.8706V47.6363H52.029V48.3452H50.8706V48.9377H52.2345V49.7019H49.7864V49.7074Z" fill="#FBAF17"/>
<path d="M56.035 49.5914L55.9608 48.7939H55.9893C56.1092 48.8493 56.2575 48.8936 56.4458 48.9324C56.6342 48.9711 56.7996 48.9878 56.9366 48.9878C57.2904 48.9878 57.4673 48.8992 57.4673 48.722C57.4673 48.6444 57.4273 48.578 57.3532 48.5226C57.279 48.4728 57.182 48.434 57.0678 48.4063C56.9537 48.3842 56.8339 48.3454 56.7026 48.3011C56.5714 48.2512 56.4515 48.1959 56.3374 48.135C56.2233 48.0685 56.1263 47.9688 56.0521 47.8304C55.9779 47.6919 55.938 47.5203 55.938 47.3209C55.938 46.9997 56.0578 46.7339 56.3032 46.529C56.5486 46.3186 56.8909 46.2134 57.3303 46.2134C57.5301 46.2134 57.7241 46.23 57.9238 46.2577C58.1178 46.2854 58.2662 46.3241 58.3632 46.3629L58.4317 47.1216H58.4032C58.1178 47.0219 57.8382 46.9665 57.5643 46.9665C57.2105 46.9665 57.0393 47.0496 57.0393 47.2212C57.0393 47.2822 57.0678 47.3375 57.1249 47.3818C57.182 47.4261 57.2562 47.4594 57.3475 47.487C57.4388 47.5147 57.5415 47.5369 57.6499 47.5701C57.7583 47.5978 57.8725 47.6366 57.9809 47.6864C58.0893 47.7362 58.192 47.7916 58.2833 47.8636C58.3746 47.9356 58.4488 48.0353 58.5059 48.1626C58.5629 48.29 58.5915 48.4395 58.5915 48.6112C58.5915 48.7496 58.5686 48.8825 58.5173 49.0099C58.4659 49.1428 58.3917 49.2646 58.2833 49.3865C58.1749 49.5083 58.0208 49.6024 57.8211 49.6744C57.6214 49.7464 57.3817 49.7852 57.1135 49.7852C56.9081 49.7852 56.6969 49.7686 56.4744 49.7298C56.2632 49.68 56.1149 49.6412 56.035 49.5914Z" fill="#FBAF17"/>
<path d="M62.3634 49.7074V46.2852H63.8471C64.0811 46.2852 64.2979 46.3128 64.4977 46.3738C64.6974 46.4347 64.88 46.5233 65.0398 46.6451C65.1995 46.7669 65.3308 46.9331 65.4221 47.149C65.5134 47.365 65.5591 47.6087 65.5591 47.8911C65.5591 48.2123 65.5077 48.4947 65.4107 48.7328C65.3137 48.9709 65.171 49.1592 64.9941 49.2977C64.8115 49.4361 64.6061 49.5358 64.3721 49.6022C64.1381 49.6687 63.8756 49.7019 63.5903 49.7019H62.3634V49.7074ZM63.4477 48.9654H63.636C64.1724 48.9654 64.4349 48.6276 64.4349 47.9465C64.4349 47.7748 64.4178 47.6253 64.3778 47.5034C64.3379 47.3816 64.2979 47.2875 64.2466 47.2266C64.1952 47.1656 64.1267 47.1158 64.0354 47.0826C63.9441 47.0494 63.8699 47.0272 63.8015 47.0217C63.7387 47.0161 63.6531 47.0106 63.5504 47.0106H63.4362V48.9654H63.4477Z" fill="#FBAF17"/>
<path d="M69.3995 49.7074V46.2852H71.8476V47.0438H70.4837V47.6363H71.6421V48.3452H70.4837V48.9377H71.8476V49.7019H69.3995V49.7074Z" fill="#FBAF17"/>
<path d="M80.082 49.7074V48.9765H80.5784V47.3816H80.0249L80.0763 46.6783H80.5727L80.6184 46.2852H81.6341V48.9765H82.0678V49.7074H80.082V49.7074Z" fill="#FBAF17"/>
<path d="M85.9425 49.6023L85.8797 48.816H85.9083C86.1708 48.9323 86.4447 48.9932 86.73 48.9932C86.9868 48.9932 87.1694 48.9323 87.2664 48.816C87.3634 48.6997 87.4319 48.5225 87.4547 48.2955C87.2607 48.4671 87.0382 48.5502 86.7757 48.5502C86.4219 48.5502 86.1537 48.4505 85.971 48.2567C85.7884 48.0573 85.6971 47.7971 85.6971 47.4759C85.6971 47.0716 85.8284 46.7615 86.0909 46.5456C86.3534 46.3296 86.6901 46.2244 87.1009 46.2244C87.5746 46.2244 87.9341 46.3628 88.1794 46.6342C88.4191 46.911 88.5447 47.2931 88.5447 47.7915C88.5447 49.1095 87.9968 49.7685 86.8955 49.7685C86.496 49.7685 86.1765 49.7131 85.9425 49.6023ZM87.1009 47.8469C87.3349 47.8469 87.449 47.6863 87.449 47.3707C87.449 47.0882 87.3349 46.9498 87.1123 46.9498C86.8727 46.9498 86.7585 47.1049 86.7585 47.4094C86.7528 47.6974 86.867 47.8469 87.1009 47.8469Z" fill="#FBAF17"/>
<path d="M92.1226 47.5256V46.2852H94.8446V47.0051L93.8574 49.7074H92.6875L93.6633 47.0549H92.9786V47.4591L92.1226 47.5256Z" fill="#FBAF17"/>
<path d="M99.9804 46.2188C100.46 46.2188 100.831 46.3627 101.093 46.6507C101.356 46.9386 101.487 47.3817 101.487 47.9742C101.487 48.5889 101.35 49.0374 101.082 49.3309C100.814 49.6189 100.431 49.7684 99.9404 49.7684C99.4611 49.7684 99.0902 49.6244 98.8334 49.3365C98.5709 49.0485 98.4454 48.5999 98.4454 47.9908C98.4454 47.3983 98.5823 46.9553 98.8562 46.6618C99.1301 46.3683 99.5068 46.2188 99.9804 46.2188ZM99.6323 48.7882C99.7008 48.9377 99.8035 49.0097 99.9519 49.0097C100.1 49.0097 100.209 48.9377 100.283 48.7938C100.357 48.6498 100.391 48.3784 100.391 47.9853C100.391 47.5976 100.357 47.3318 100.283 47.1878C100.209 47.0439 100.106 46.9719 99.9576 46.9719C99.8149 46.9719 99.7122 47.0439 99.638 47.1878C99.5638 47.3318 99.5296 47.5866 99.5296 47.952C99.5353 48.3674 99.5695 48.6443 99.6323 48.7882Z" fill="#FBAF17"/>
<path d="M2.53693 10.75V2.59302H8.36893V4.3983H5.12196V5.81594H7.88388V7.50493H5.12196V8.92258H8.36893V10.75H2.53693Z" fill="white"/>
<path d="M9.47599 10.75V2.59302H12.061V8.88935H15.2053V10.75H9.47599Z" fill="white"/>
<path d="M16.2781 10.7501V2.59314H22.1101V4.39843H18.8631V5.81607H21.625V7.50506H18.8631V8.92271H22.1101V10.7501H16.2781ZM18.0014 2.0283L19.2626 0.405762H22.0587L19.9987 2.0283H18.0014Z" fill="white"/>
<path d="M22.6008 4.51459V2.59302H29.7739V4.50905H27.5141V10.75H24.9291V4.51459H22.6008Z" fill="white"/>
<path d="M33.1749 10.75H30.5899V2.59302H34.2934C35.486 2.59302 36.3591 2.80345 36.8955 3.22985C37.4376 3.65071 37.7058 4.29862 37.7058 5.15696C37.7058 6.19251 37.2379 6.96224 36.3077 7.46063L38.1738 10.75H35.3548L33.8996 7.9258H33.1749V10.75ZM33.1749 6.38632H33.9224C34.2648 6.38632 34.5502 6.29218 34.7727 6.10944C34.9953 5.92116 35.1094 5.64428 35.1094 5.27325C35.1094 4.87454 35.0181 4.60319 34.8298 4.46475C34.6415 4.32631 34.3733 4.25432 34.0138 4.25432H33.1749V6.38632V6.38632Z" fill="white"/>
<path d="M41.4892 2.59302V10.75H38.927V2.59302H41.4892Z" fill="white"/>
<path d="M47.3612 9.01693C48.006 9.01693 48.6565 8.8951 49.3071 8.64036H49.3755L49.1758 10.5121C48.9533 10.6173 48.6109 10.7115 48.1544 10.7945C47.6978 10.8776 47.2641 10.9163 46.8419 10.9163C45.3924 10.9163 44.3082 10.5453 43.6006 9.79774C42.8873 9.05569 42.5335 8.05891 42.5335 6.81847C42.5335 5.51158 42.9044 4.44834 43.6405 3.6343C44.3767 2.82027 45.4609 2.41602 46.8875 2.41602C47.6807 2.41602 48.3997 2.53231 49.0446 2.76489L49.2557 4.692H49.1872C48.5253 4.45942 47.8861 4.34313 47.2641 4.34313C46.6421 4.34313 46.1457 4.52587 45.7691 4.88582C45.3924 5.25131 45.2041 5.83276 45.2041 6.64126C45.2041 7.3667 45.3867 7.94262 45.7519 8.36348C46.1172 8.80649 46.6536 9.01693 47.3612 9.01693Z" fill="white"/>
<path d="M49.6209 10.75L52.5883 2.59302H55.5785L58.5002 10.75H55.8352L55.3331 9.19393H52.7366L52.2573 10.75H49.6209ZM54.0206 4.55889L53.1361 7.56585H54.9507L54.032 4.55889H54.0206Z" fill="white"/>
<path d="M143.669 47.5591H111.148V48.434H143.669V47.5591Z" fill="#FBAF17"/>
<path d="M34.1108 47.5591H1.58966V48.434H34.1108V47.5591Z" fill="#FBAF17"/>
</g>
<defs>
<clipPath id="clip0_7_183">
<rect width="144.094" height="49.3739" fill="white" transform="translate(0.5625 0.405762)"/>
</clipPath>
</defs>
</svg>
