<svg width="23" height="23" viewBox="0 0 23 23" fill="none" xmlns="http://www.w3.org/2000/svg">
<path fill-rule="evenodd" clip-rule="evenodd" d="M18.0404 4.755C17.1561 3.8931 16.1056 3.21011 14.9492 2.74534C13.7929 2.28057 12.5536 2.04321 11.3027 2.04692C6.05317 2.04692 1.77974 6.18932 1.7776 11.2818C1.77528 12.9034 2.21404 14.4966 3.04922 15.8993L1.69775 20.6831L6.74705 19.399C8.14472 20.1366 9.7093 20.5227 11.2989 20.5222H11.3027C16.5519 20.5222 20.8249 16.3793 20.8274 11.2872C20.8306 10.0728 20.5859 8.86985 20.1074 7.74841C19.6289 6.62698 18.9263 5.60943 18.0404 4.755V4.755ZM11.3027 18.9635H11.2993C9.88226 18.9639 8.49097 18.5944 7.27013 17.8935L6.98105 17.7271L3.98478 18.4892L4.78455 15.6568L4.59624 15.3656C3.80389 14.1435 3.38409 12.7273 3.38569 11.2818C3.38569 7.05 6.93878 3.60687 11.3057 3.60687C13.4006 3.60323 15.4112 4.41036 16.8952 5.85076C18.3793 7.29115 19.2153 9.24683 19.2194 11.2877C19.2176 15.5199 15.6663 18.9635 11.3027 18.9635V18.9635ZM15.6449 13.2149C15.4071 13.0993 14.2358 12.541 14.0189 12.4641C13.802 12.3871 13.6419 12.3484 13.4834 12.5797C13.325 12.811 12.8686 13.3285 12.7298 13.4845C12.591 13.6405 12.4522 13.6575 12.2144 13.5419C11.9765 13.4263 11.2092 13.1829 10.3001 12.3967C9.59259 11.7848 9.1152 11.0293 8.97643 10.7985C8.83765 10.5676 8.96148 10.4424 9.08062 10.3276C9.18779 10.224 9.31846 10.058 9.43759 9.92322C9.55672 9.78844 9.59644 9.69193 9.67543 9.53802C9.75443 9.3841 9.71514 9.24932 9.65579 9.13409C9.59644 9.01886 9.12033 7.8828 8.9222 7.42064C8.72877 6.97054 8.53277 7.03169 8.38674 7.02462C8.24796 7.01797 8.08784 7.0163 7.93027 7.0163C7.80982 7.01936 7.69131 7.04657 7.58213 7.09624C7.47296 7.14591 7.37547 7.21698 7.29575 7.305C7.07755 7.53629 6.46267 8.09537 6.46267 9.23019C6.46267 10.365 7.31667 11.4632 7.43453 11.6171C7.55238 11.771 9.11264 14.1018 11.5 15.1014C11.9433 15.2864 12.3963 15.4486 12.857 15.5873C13.4271 15.7629 13.9459 15.7383 14.3558 15.6788C14.8131 15.6127 15.7649 15.1206 15.9626 14.5814C16.1603 14.0423 16.1607 13.5806 16.1014 13.4845C16.042 13.3884 15.8832 13.3302 15.6449 13.2149V13.2149Z" fill="white"/>
</svg>
