<svg width="22" height="23" viewBox="0 0 22 23" fill="none" xmlns="http://www.w3.org/2000/svg">
<path d="M14.9478 3.59976C16.0038 3.60283 17.0158 4.0129 17.7625 4.7404C18.5093 5.46791 18.9302 6.45374 18.9334 7.48258V15.2474C18.9302 16.2762 18.5093 17.2621 17.7625 17.9896C17.0158 18.7171 16.0038 19.1272 14.9478 19.1302H6.97734C5.92125 19.1272 4.90932 18.7171 4.16255 17.9896C3.41578 17.2621 2.99486 16.2762 2.9917 15.2474V7.48258C2.99486 6.45374 3.41578 5.46791 4.16255 4.7404C4.90932 4.0129 5.92125 3.60283 6.97734 3.59976H14.9478V3.59976ZM14.9478 2.04688H6.97734C3.90848 2.04688 1.39771 4.49288 1.39771 7.48258V15.2474C1.39771 18.2371 3.90848 20.6831 6.97734 20.6831H14.9478C18.0166 20.6831 20.5274 18.2371 20.5274 15.2474V7.48258C20.5274 4.49288 18.0166 2.04688 14.9478 2.04688V2.04688Z" fill="white"/>
<path d="M16.1433 7.48261C15.9068 7.48261 15.6757 7.41429 15.4791 7.28631C15.2824 7.15832 15.1292 6.97641 15.0387 6.76358C14.9482 6.55074 14.9245 6.31655 14.9707 6.09061C15.0168 5.86466 15.1307 5.65712 15.2979 5.49423C15.4651 5.33133 15.6781 5.2204 15.91 5.17546C16.142 5.13051 16.3824 5.15358 16.6008 5.24174C16.8193 5.3299 17.006 5.47919 17.1374 5.67073C17.2688 5.86228 17.3389 6.08747 17.3389 6.31784C17.3392 6.47089 17.3085 6.6225 17.2486 6.76397C17.1886 6.90543 17.1006 7.03396 16.9895 7.14219C16.8784 7.25041 16.7464 7.33619 16.6012 7.39461C16.456 7.45303 16.3004 7.48293 16.1433 7.48261V7.48261ZM10.9625 8.25884C11.5931 8.25884 12.2095 8.44101 12.7339 8.78232C13.2582 9.12363 13.6669 9.60875 13.9082 10.1763C14.1495 10.7439 14.2127 11.3685 14.0896 11.971C13.9666 12.5735 13.6629 13.127 13.217 13.5614C12.7711 13.9958 12.203 14.2917 11.5845 14.4115C10.966 14.5314 10.3249 14.4698 9.74232 14.2347C9.15971 13.9996 8.66175 13.6015 8.3114 13.0907C7.96105 12.5799 7.77405 11.9794 7.77405 11.365C7.77496 10.5415 8.11117 9.75192 8.70892 9.16959C9.30667 8.58726 10.1171 8.25972 10.9625 8.25884V8.25884ZM10.9625 6.70596C10.0166 6.70596 9.09197 6.97921 8.30551 7.49115C7.51904 8.00309 6.90607 8.73074 6.5441 9.58207C6.18213 10.4334 6.08742 11.3702 6.27195 12.274C6.45648 13.1777 6.91196 14.0079 7.58079 14.6595C8.24963 15.311 9.10177 15.7548 10.0295 15.9346C10.9572 16.1143 11.9188 16.0221 12.7926 15.6694C13.6665 15.3168 14.4134 14.7196 14.9389 13.9534C15.4644 13.1873 15.7449 12.2865 15.7449 11.365C15.7449 10.1294 15.241 8.94431 14.3442 8.07056C13.4473 7.19682 12.2309 6.70596 10.9625 6.70596V6.70596Z" fill="white"/>
</svg>
