<svg width="23" height="23" viewBox="0 0 23 23" fill="none" xmlns="http://www.w3.org/2000/svg">
<path fill-rule="evenodd" clip-rule="evenodd" d="M21.2273 11.4214C21.2273 6.27562 16.9445 2.10327 11.6625 2.10327C6.38049 2.10327 2.09766 6.27562 2.09766 11.4214C2.09766 16.0721 5.5948 19.9271 10.168 20.6268V14.1157H7.73878V11.4214H10.168V9.36849C10.168 7.03355 11.5963 5.74274 13.7809 5.74274C14.8274 5.74274 15.9223 5.92495 15.9223 5.92495V8.21829H14.7156C13.5281 8.21829 13.1566 8.93628 13.1566 9.67424V11.4214H15.8091L15.3855 14.1157H13.157V20.6276C17.7302 19.9283 21.2273 16.0734 21.2273 11.4214V11.4214Z" fill="white"/>
</svg>
